<?xml version="1.0" encoding="UTF-8" standalone="no"?>
<!-- Generator: Adobe Illustrator 27.5.0, SVG Export Plug-In . SVG Version: 6.00 Build 0)  -->

<svg
   version="1.1"
   x="0px"
   y="0px"
   viewBox="0 0 379.52472 445.38434"
   xml:space="preserve"
   id="svg422"
   sodipodi:docname="Logo_MHS-CBAU.svg"
   inkscape:version="1.3 (0e150ed6c4, 2023-07-21)"
   width="379.52472"
   height="445.38434"
   inkscape:export-filename="Logo_MHS-CBAU.png"
   inkscape:export-xdpi="300"
   inkscape:export-ydpi="300"
   xmlns:inkscape="http://www.inkscape.org/namespaces/inkscape"
   xmlns:sodipodi="http://sodipodi.sourceforge.net/DTD/sodipodi-0.dtd"
   xmlns="http://www.w3.org/2000/svg"
   xmlns:svg="http://www.w3.org/2000/svg"><defs
   id="defs422">&#10;	&#10;&#10;	&#10;	&#10;	&#10;	&#10;&#10;		&#10;		&#10;		&#10;		&#10;		&#10;		&#10;		&#10;		&#10;		&#10;			&#10;		&#10;		&#10;		&#10;		&#10;		&#10;		&#10;		&#10;		&#10;		&#10;		&#10;		&#10;		&#10;		&#10;		&#10;		&#10;		&#10;		&#10;		&#10;		&#10;		&#10;		&#10;		&#10;		&#10;		&#10;		&#10;		&#10;		&#10;			&#10;		&#10;			&#10;		&#10;			&#10;		&#10;			&#10;		&#10;			&#10;		&#10;			&#10;		&#10;			&#10;		&#10;		&#10;			&#10;		&#10;			&#10;		&#10;			&#10;		&#10;			&#10;		&#10;			&#10;		&#10;			&#10;		&#10;			&#10;		&#10;			&#10;		&#10;			&#10;		&#10;			&#10;		&#10;		&#10;			&#10;		&#10;			&#10;		&#10;			&#10;		&#10;			&#10;		&#10;			&#10;		&#10;			&#10;		&#10;		&#10;			&#10;		&#10;		&#10;	</defs><sodipodi:namedview
   id="namedview422"
   pagecolor="#ffffff"
   bordercolor="#000000"
   borderopacity="0.25"
   inkscape:showpageshadow="2"
   inkscape:pageopacity="0.0"
   inkscape:pagecheckerboard="0"
   inkscape:deskcolor="#d1d1d1"
   inkscape:zoom="1.221"
   inkscape:cx="165.43817"
   inkscape:cy="98.689599"
   inkscape:window-width="1681"
   inkscape:window-height="1401"
   inkscape:window-x="1669"
   inkscape:window-y="0"
   inkscape:window-maximized="0"
   inkscape:current-layer="g425" />&#10;&#10;&#10;<g
   id="g425"
   transform="translate(-208.54805,-32.621592)"><path
     id="path1"
     style="fill:#ff0000;fill-opacity:1;stroke-width:0.102023"
     d="M 398.31041,32.621592 364.4386,99.139575 c -1.7155,3.430895 -5.97533,4.695095 -9.28467,2.755435 L 321.79355,82.613702 342.60689,189.94051 c 1.25378,6.50997 -6.76629,10.62771 -11.32589,5.81504 l -43.15648,-46.31747 -10.71084,25.19997 c -1.24405,2.90003 -4.35933,4.52176 -7.44846,3.87744 l -55.29572,-11.7337 18.97488,58.35757 c 1.04024,3.17629 -0.44585,6.63032 -3.46739,8.05904 l -21.62893,10.10026 96.00318,77.74249 c 2.20512,1.78961 3.02591,4.78469 2.04123,7.44846 l -11.83508,32.64617 87.63774,-15.40611 c 6.10175,-1.04871 11.60899,3.81425 11.32363,9.99888 l -4.58938,84.42602 15.32393,-0.43434 -1.55126,-83.99168 c -0.28537,-6.18464 5.22189,-11.0476 11.32365,-9.99888 l 87.63774,15.40611 -11.83509,-32.64617 c -0.98468,-2.66377 -0.16389,-5.65885 2.04123,-7.44846 l 96.00319,-77.74249 -21.62895,-10.10026 c -3.02153,-1.42873 -4.50762,-4.88275 -3.46738,-8.05904 l 18.97489,-58.35757 -55.29573,11.7337 c -3.08913,0.64432 -6.20441,-0.97741 -7.44846,-3.87744 l -10.71083,-25.19997 -43.15648,46.31747 c -4.56001,4.80718 -12.57377,0.69187 -11.32365,-5.81504 l 20.8111,-107.326808 -33.36039,19.281308 c -3.30934,1.93966 -7.56917,0.67546 -9.28467,-2.755435 z"
     sodipodi:nodetypes="cccccccccccccccccccccccccccccccccccccc" /><g
     id="g3"><g
       id="g2"><path
         style="fill:#380657;stroke-width:1.1531"
         d="m 404.66748,429.81746 c 0,0 7.44669,6.65221 10.62347,6.75138 3.17677,0.0992 5.36189,-5.56023 5.36189,-5.56023 0,0 4.56741,5.6594 0.99282,11.02014 -3.13758,4.70693 -35.43463,0.15336 -43.26992,-1.02741 -0.98244,-0.14875 -1.70543,-0.99282 -1.70543,-1.98678 v -3.5377 z"
         id="path89" /><path
         style="fill:#270644;stroke-width:1.1531"
         d="m 408.07949,432.62064 c -1.63855,-0.0346 -4.46594,0.41511 -8.24003,2.95538 -2.83892,1.91068 -5.41955,3.11336 -7.38096,3.8548 -1.06892,0.40359 -1.00896,1.92913 0.0922,2.23355 2.05366,0.56848 4.75997,1.27648 7.70613,1.94066 -8.98376,-0.72991 -18.17394,-2.04444 -21.88345,-2.60369 -0.98243,-0.1476 -1.70542,-0.99282 -1.70542,-1.98678 v -3.5377 l 27.99831,-5.6594 c 10e-4,0 1.4875,1.32606 3.41317,2.80318 z"
         id="path90" /><path
         style="fill:#380657;stroke-width:1.1531"
         d="m 323.49069,429.81746 c 0,0 -7.44669,6.65221 -10.62347,6.75138 -3.17678,0.0992 -5.36189,-5.56023 -5.36189,-5.56023 0,0 -4.56742,5.6594 -0.99282,11.02014 3.13757,4.70693 35.43463,0.15336 43.26992,-1.02741 0.98359,-0.14875 1.70542,-0.99282 1.70542,-1.98678 v -3.5377 z"
         id="path91" /><path
         style="fill:#270644;stroke-width:1.1531"
         d="m 320.07868,432.62064 c 1.63855,-0.0346 4.46594,0.41511 8.24002,2.95538 2.83892,1.91068 5.4184,3.11336 7.38097,3.8548 1.06892,0.40359 1.00896,1.92913 -0.0923,2.23355 -2.05366,0.56848 -4.75998,1.27648 -7.70614,1.94066 8.98377,-0.72991 18.17394,-2.04444 21.8823,-2.60369 0.98359,-0.1476 1.70543,-0.99282 1.70543,-1.98678 v -7.1123 l -27.99832,-2.0848 c 0,0 -1.48634,1.32606 -3.41201,2.80318 z"
         id="path92" /><path
         style="fill:#efb08e;stroke-width:1.1531"
         d="m 446.49833,244.75252 c 0,0 8.40607,-29.28863 9.29971,-32.36624 0.89365,-3.07761 0.59616,-17.37485 0.59616,-19.36048 0,-1.98563 -2.89773,-7.54586 -4.92372,-7.04887 0,0 -2.65443,-4.43481 -6.09642,-3.77293 0,0 -1.19115,-1.9199 -4.10387,-1.7873 0,0 -1.45636,-0.59615 -2.97844,0.99282 -1.52209,1.58896 1.65469,10.92097 1.65469,11.38451 0,0.46354 -0.66188,4.50053 -0.92709,5.16241 -0.26521,0.66188 -3.30708,3.83866 -3.30708,3.83866 0,0 -1.19345,-9.86243 -6.35586,-9.26628 0,0 -0.83254,6.04683 1.32375,12.04639 2.15629,5.99956 4.10387,12.47649 3.44199,15.45494 -0.66188,2.97845 -6.47809,12.11212 -6.47809,12.11212 l 11.87227,30.08311 c -10e-4,0.001 8.10742,-5.16125 6.982,-17.47286 z"
         id="path93" /><g
         style="opacity:0.6"
         id="g95"
         transform="matrix(-1.1530957,0,0,1.1530957,686.21424,-15.106818)">&#10;			<path
   style="fill:#f38b82"
   d="m 213.945,240.512 4.65,-11.783 c -6.054,-3.265 -11.899,-12.765 -15.111,-18.712 2.139,7.449 4.405,15.341 4.405,15.341 -0.976,10.677 6.056,15.154 6.056,15.154 z"
   id="path94" />&#10;			<path
   style="fill:#f38b82"
   d="m 222.102,219.844 2.139,-5.42 c 0,0 -5.044,-7.921 -5.618,-10.504 -0.018,-0.081 -0.027,-0.174 -0.041,-0.261 l -1.115,-1.381 c -2.409,3.5 3.13,14.675 4.635,17.566 z"
   id="path95" />&#10;		</g><path
         style="fill:#a03cff;stroke-width:1.1531"
         d="m 413.40448,213.44482 c 0,0 7.05118,7.40288 11.93915,12.11212 0,0 10.56582,25.28393 16.2575,32.69718 l 4.89835,-13.50275 c 0,0 5.03096,10.45742 -1.45636,16.94474 -6.48616,6.48616 -14.03202,8.86961 -20.38673,5.42762 -6.35356,-3.44199 -11.1193,-14.8265 -19.59225,-22.90163 z"
         id="path96" /><path
         style="fill:#862eed;stroke-width:1.1531"
         d="m 408.63874,244.22325 c 0,0 7.70614,18.68246 21.04861,19.00417 5.15433,0.12454 8.42567,-3.06031 10.5047,-7.01197 0.49352,0.77027 0.96744,1.46443 1.40908,2.03982 l 4.89835,-13.50275 c 0,0 5.03096,10.45743 -1.45636,16.94474 -6.48616,6.48617 -14.03202,8.86962 -20.38673,5.42763 -5.7159,-3.09607 -10.15416,-12.61141 -17.15345,-20.37175 0.27328,-0.93977 0.63997,-1.79652 1.1358,-2.52989 z"
         id="path97" /><line
         style="fill:none;stroke:#6b21d6;stroke-width:0.827346;stroke-linecap:round;stroke-linejoin:round;stroke-miterlimit:10"
         x1="423.72931"
         y1="233.63321"
         x2="419.06271"
         y2="251.20641"
         id="line97" /><path
         style="fill:#f6b994;stroke-width:1.1531"
         d="m 401.39038,256.76547 c 0,0 23.33174,-20.28641 27.6005,-24.98643 4.26876,-4.70002 6.71793,-12.37733 6.71793,-12.37733 0,0 0.13261,-1.9199 -1.58896,-2.31657 0,0 1.52208,-4.36792 -1.12543,-5.36189 0,0 0.46355,-2.64751 -3.30938,-2.64751 0,0 -0.59615,-1.52208 -3.50772,-1.12542 0,0 -3.97126,7.8768 -4.50053,8.20774 -0.52927,0.33093 -8.20774,4.76574 -8.20774,4.76574 0,0 -0.0657,-3.77293 1.19115,-6.55304 1.25803,-2.78012 2.18397,-7.08232 0.39667,-7.61159 -1.7873,-0.52927 -4.13731,3.93782 -4.13731,3.93782 l -16.05109,14.85995 -4.89835,7.67731 4.37484,31.50603 z"
         id="path98" /><path
         style="opacity:0.6;fill:#f38b82;stroke-width:1.1531"
         d="m 392.55305,251.81869 c 9.15673,-2.74206 25.42115,-12.2943 33.87449,-17.4717 -7.4144,7.095 -25.03716,22.41848 -25.03716,22.41848 l -3.85826,4.36908 c -1.32145,0.83369 -2.46417,1.53247 -3.39587,2.09287 z"
         id="path99" /><path
         style="fill:#a03cff;stroke-width:1.1531"
         d="m 399.50391,200.86916 c 0,0 7.24836,4.56741 11.41796,9.82899 0,0 -3.34283,5.19585 -4.66658,6.65221 -1.32376,1.45636 -1.58897,10.65691 -1.58897,10.65691 l -10.31905,5.92345 c 0,0 -0.89942,18.96266 1.18538,26.11185 l 5.85773,-3.27594 c 0,0 0.69531,8.93534 -1.19115,14.79306 h -1.7873 c 0,0 17.37485,140.98325 17.57318,160.2434 0,0 -7.84336,-2.97844 -13.30442,0 -5.46106,2.97845 -16.41547,10.98785 -27.40216,5.16241 -10.9867,-5.82544 -15.75245,-7.41325 -23.82757,-3.17677 -8.07513,4.23647 -16.54693,4.63313 -23.1657,0.66187 -6.61877,-3.97126 -9.20055,-6.71793 -15.5541,-1.25802 0,0 0.46354,-25.35081 7.34637,-64.79937 6.88398,-39.44856 17.47401,-119.40537 17.47401,-119.40537 l -8.1028,-36.40323 c 0,0 0.16028,-16.34513 16.64147,-21.37724 16.4812,-5.03211 53.4137,9.66179 53.4137,9.66179 z"
         id="path100" /><path
         style="fill:#862eed;stroke-width:1.1531"
         d="m 389.17909,227.54372 c 9.26628,-3.97126 12.33697,-15.88504 12.33697,-15.88504 l 0.99859,17.58471 -7.99557,4.59047 -0.17066,-1.65585 c -2.82393,0.97668 -11.34992,5.87041 -11.34992,5.87041 z"
         id="path101" /><path
         style="fill:#862eed;stroke-width:1.1531"
         d="m 337.89747,226.61779 c 0,0 26.87059,37.35684 36.25794,38.38886 9.38735,1.03202 21.37839,-4.96408 21.37839,-4.96408 l 5.85773,-3.27594 c 0,0 0.69532,8.93534 -1.19115,14.79306 h -1.7873 c 0,0 0.36899,2.9992 0.99859,8.157 -4.77728,1.15194 -11.27728,2.01215 -18.83698,1.17616 -16.15025,-1.7873 -22.96736,-13.89942 -22.96736,-13.89942 l -18.79776,-35.40119 1.55322,0.66534 c -1.25918,-0.93286 -2.46532,-5.63979 -2.46532,-5.63979 z"
         id="path102" /><path
         style="fill:#563186;stroke-width:1.1531"
         d="m 354.59429,206.40287 c 0,0 10.95557,9.88779 24.78926,32.78943 h 1.19114 c 0,0 5.01366,-9.79786 4.92257,-17.35871 -0.0911,-7.56085 -22.82322,-28.44341 -22.82322,-28.44341 h -13.63075 z"
         id="path103" /><path
         style="fill:#472977;stroke-width:1.1531"
         d="m 366.27746,218.44234 h 15.55411 l 2.87928,6.65221 c 0,0 -3.17678,5.85772 -7.84336,5.85772 -1.0251,0 -2.11132,-0.29288 -3.18139,-0.73452 -2.66711,-3.99778 -5.1601,-7.45822 -7.40864,-10.40092 z"
         id="path104" /><path
         style="fill:#fcd532;stroke-width:1.1531"
         d="m 393.81223,194.58133 6.88398,6.2221 c 0,0 -7.94252,34.81542 -20.12152,38.39002 0,0 3.65532,-12.03025 4.0785,-24.08471 0.42204,-12.05562 9.15904,-20.52741 9.15904,-20.52741 z"
         id="path105" /><path
         style="fill:#fcd532;stroke-width:1.1531"
         d="m 331.80912,210.63703 c 0,0 2.96692,-11.02474 12.56183,-12.4811 0,0 11.58169,6.88398 21.90651,22.23975 0,0 -9.92815,-21.61132 -14.16463,-26.67456 -4.23647,-5.06324 -13.37014,-1.09198 -15.15744,0 -1.7873,1.09198 -5.03211,9.60644 -5.14627,16.91591 z"
         id="path106" /><path
         style="fill:#e7e5ea;stroke-width:1.1531"
         d="m 357.93827,194.91227 -4.70002,0.52927 -1.12542,-1.72042 c 0,0 -8.6044,-0.89365 -14.36296,4.46825 -5.75856,5.36074 -7.64502,14.99139 -4.66658,21.44527 l 4.46825,29.35436 c 0,0 -8.73701,-1.72042 -12.70827,-9.00222 -3.97126,-7.28065 1.58897,-15.48838 1.58897,-15.48838 0,0 -8.67128,-9.53149 -8.27346,-15.02484 0.32402,-4.48324 11.09624,-9.62835 15.04674,-11.36837 0.80948,-0.35631 1.2834,-1.19691 1.16578,-2.07327 -0.25022,-1.87262 -0.36092,-5.11859 1.39294,-7.14342 2.58178,-2.97845 8.05438,-1.44714 8.53868,-5.9569 0.4843,-4.50975 -10.42514,-8.50523 -10.42514,-8.50523 l 13.84983,-16.40625 16.45237,32.52422 z"
         id="path107" /><path
         style="opacity:0.7;fill:#d9d7dd;stroke-width:1.1531"
         d="m 329.90652,206.13189 c 1.29031,-6.94971 10.62347,-11.61629 16.48119,-14.09775 5.85773,-2.48261 5.72512,-7.84336 5.72512,-7.84336 l 8.07513,2.31657 -1.53592,7.90563 -0.71492,0.50044 -4.70002,0.52927 -1.12542,-1.72042 c 0,0 -8.6044,-0.89365 -14.36296,4.46825 -5.75856,5.36074 -7.64503,14.9914 -4.66658,21.44527 l 4.46825,29.35436 c 0,0 -0.0692,-0.015 -0.16951,-0.0369 -8.43489,-2.96 -10.14955,-11.71776 -8.76698,-17.00585 2.05366,-7.84567 0.002,-18.8658 1.29262,-25.81551 z"
         id="path108" /><path
         style="fill:#f6b994;stroke-width:1.1531"
         d="m 359.52608,185.7048 c 0,0 -1.35834,3.4662 -7.1169,0.56156 -5.75856,-2.90465 -7.37866,-6.77559 -7.37866,-6.77559 l -3.85595,-5.06325 v -7.01659 h 13.45316 z"
         id="path109" /><path
         style="fill:#f38b82;stroke-width:1.1531"
         d="m 352.88771,178.82889 c 0,0 -2.23008,0.99281 -3.48811,-1.46559 0,0 -2.28313,-1.15194 -1.37334,-2.63943 0,-0.001 2.97499,0.99397 4.86145,4.10502 z"
         id="path110" /><path
         style="fill:#f6b994;stroke-width:1.1531"
         d="m 384.71085,182.65025 c 0,0 1.05854,-3.17678 1.62125,-6.99929 0.56271,-3.82252 2.84584,-12.46036 2.84584,-12.46036 l -9.53149,-13.69531 -27.53477,7.02696 2.25084,14.36296 13.63536,23.16569 z"
         id="path111" /><path
         style="fill:#f38b82;stroke-width:1.1531"
         d="m 378.7874,181.90189 c 0,0 -5.16241,-2.80894 -6.35471,0.43356 -1.19115,3.24366 5.82543,2.11132 6.35471,-0.43356 z"
         id="path112" /><path
         style="fill:#e7e5ea;stroke-width:1.1531"
         d="m 380.64042,156.9858 c 0,0 -3.02803,-0.59615 -4.36793,-2.13438 0,0 1.63855,2.58178 -0.69531,5.16241 -2.33272,2.58178 -10.12649,-3.37512 -10.12649,-3.37512 l -8.53867,4.02431 c 0,0 0.0992,6.45042 -1.98563,8.53521 l 8.93533,13.40359 c 0,0 3.27595,-2.78012 6.91627,-2.25085 3.64033,0.52928 3.44199,2.84585 8.00941,2.25085 0,0 0.1153,-1.43907 -0.43011,-2.97845 0,0 1.38948,-3.07761 5.85773,-1.88646 4.46824,1.19114 12.01295,11.02013 11.91378,19.75714 -0.0761,6.73062 -2.15629,9.98465 -3.10759,11.12507 -0.25599,0.30672 -0.29519,0.72645 -0.0992,1.07468 0.63766,1.13003 1.83112,3.84903 1.28686,7.65771 -0.72761,5.09668 -6.48617,3.44199 -7.80992,2.5149 0,0 -1.98448,7.31409 -10.87139,6.71794 -8.8869,-0.59615 -17.62276,-17.87068 -19.11256,-24.12622 -1.4898,-6.2544 1.4898,-13.10494 1.4898,-13.10494 0,0 1.61203,-16.6138 -8.37263,-20.12152 h -5.49334 v -7.47898 l 26.04612,-11.78117 12.4765,-1.19115 c 0,0 4.63314,5.51064 4.03699,9.24206 -0.59615,3.72911 -5.95805,-1.03663 -5.95805,-1.03663 z"
         id="path113" /><g
         style="opacity:0.5"
         id="g115"
         transform="matrix(-1.1530957,0,0,1.1530957,686.21424,-15.106818)">&#10;			<path
   style="fill:#d9d7dd"
   d="m 274.158,143.16 -10.82,-1.033 c 0,0 -0.38,0.453 -0.889,1.17 l 0.143,1.557 c 0,0 3.218,-0.689 7.921,2.669 1.303,0.93 3.181,1.979 5.276,3.021 1.365,-0.822 2.388,-1.6 2.388,-1.6 l 7.405,3.49 c 0,0 -0.016,1.062 0.115,2.41 2.043,0.769 3.706,1.309 4.544,1.462 l 0.696,4.014 c 0.333,-0.169 0.677,-0.325 1.045,-0.455 h 3.419 l 1.057,-6.617 z"
   id="path114" />&#10;			<path
   style="fill:#d9d7dd"
   d="m 285.495,167.982 c -1.837,5.715 -1.837,11.456 -1.378,15.474 0.459,4.018 -6.314,19.057 -12.628,20.55 -6.314,1.492 -8.151,-5.051 -8.151,-5.051 0,0 -5.281,3.214 -6.773,-3.1 0,0 -0.983,-0.081 -2.159,-1.043 -0.016,0.048 -0.028,0.096 -0.054,0.142 -0.553,0.98 -1.588,3.338 -1.116,6.641 0.631,4.42 5.625,2.985 6.773,2.181 0,0 1.721,6.343 9.428,5.826 7.707,-0.517 15.283,-15.498 16.575,-20.923 1.292,-5.424 -1.292,-11.365 -1.292,-11.365 0,0 -0.458,-4.751 0.79,-9.372 -0.005,0.013 -0.01,0.026 -0.015,0.04 z"
   id="path115" />&#10;		</g><path
         style="fill:#e7e5ea;stroke-width:1.1531"
         d="m 368.5283,167.3775 c 0,0 -2.28313,-1.40678 -5.11282,-0.3148 -2.8297,1.09198 -3.67377,1.63855 -4.9145,0.99282 -1.24073,-0.64574 -1.19115,-3.82252 1.98563,-5.41148 3.17678,-1.58897 6.65221,-2.03522 8.63784,-0.49583 1.98448,1.53938 2.18397,5.24658 -0.59615,5.22929 z"
         id="path123" /><path
         style="fill:#e7e5ea;stroke-width:1.1531"
         d="m 384.90918,166.86437 c 0,0 -1.4898,-1.00896 -3.54116,-0.38052 -2.05135,0.62843 -3.7072,1.09198 -4.36908,-0.92709 -0.66187,-2.01907 2.18051,-4.39676 3.73949,-4.56742 1.88647,-0.2064 4.61469,1.11044 5.51065,3.51579 0.86943,2.33502 -0.28943,2.79741 -1.3399,2.35924 z"
         id="path124" /><path
         style="opacity:0.5;fill:#d9d7dd;stroke-width:1.1531"
         d="m 368.5283,167.3775 c 0,0 -2.28313,-1.40678 -5.11282,-0.3148 -2.8297,1.09198 -3.67377,1.63855 -4.9145,0.99282 -0.28135,-0.14645 -0.49237,-0.4278 -0.61921,-0.78757 0.70454,0.26291 1.83458,0.12684 3.44891,-0.75182 2.8297,-1.53938 6.90012,0.46355 7.8595,-0.95937 0.68955,-1.0228 0.0473,-2.71554 -0.36899,-3.58959 0.0992,0.0634 0.20986,0.10954 0.30326,0.18104 1.98448,1.53938 2.18397,5.24658 -0.59615,5.22929 z"
         id="path125" /><path
         style="opacity:0.5;fill:#d9d7dd;stroke-width:1.1531"
         d="m 386.25023,164.50629 c 0.86828,2.33271 -0.29058,2.79625 -1.3399,2.35808 0,0 -1.4898,-1.00896 -3.54115,-0.38052 -2.05136,0.62843 -3.70721,1.09198 -4.36908,-0.92709 -0.1476,-0.45202 -0.11416,-0.92017 0.0357,-1.37911 0.41858,1.1727 1.89569,2.03752 4.03584,1.27994 2.61407,-0.92709 4.03699,1.08391 4.6585,0.38859 0.40244,-0.45086 0.0542,-1.77461 -0.24099,-2.65212 0.30787,0.39552 0.57885,0.82562 0.76104,1.31223 z"
         id="path126" /><path
         style="fill:#2d1a22;stroke-width:1.1531"
         d="m 379.91282,171.20001 c 0,1.06892 0.51082,1.93605 1.14156,1.93605 0.63074,0 1.14157,-0.86713 1.14157,-1.93605 0,-1.06892 -0.51083,-1.93605 -1.14157,-1.93605 -0.63074,0 -1.14156,0.86713 -1.14156,1.93605 z"
         id="path127" /><path
         style="fill:#2d1a22;stroke-width:1.1531"
         d="m 365.45069,172.49032 c 0,1.06892 0.51082,1.93605 1.14157,1.93605 0.63074,0 1.14156,-0.86713 1.14156,-1.93605 0,-1.06892 -0.51082,-1.93605 -1.14156,-1.93605 -0.63075,0 -1.14157,0.86713 -1.14157,1.93605 z"
         id="path128" /><g
         id="g129"
         transform="matrix(-1.1530957,0,0,1.1530957,686.21424,-15.106818)">&#10;			<path
   style="fill:#d1937d"
   d="m 270.008,161.118 c -0.644,1.697 -1.242,3.418 -1.779,5.149 -0.268,0.866 -0.513,1.737 -0.727,2.61 -0.211,0.868 -0.392,1.763 -0.413,2.59 l -0.365,-0.474 c 0.236,0.064 0.542,0.114 0.821,0.135 0.286,0.024 0.575,0.022 0.862,-10e-4 0.575,-0.041 1.136,-0.197 1.654,-0.45 l 0.009,-0.004 c 0.152,-0.074 0.336,-0.011 0.41,0.141 0.07,0.143 0.017,0.315 -0.116,0.396 -0.565,0.346 -1.201,0.586 -1.855,0.695 -0.327,0.058 -0.658,0.09 -0.991,0.093 -0.339,0.002 -0.652,-0.012 -1.021,-0.077 -0.224,-0.039 -0.379,-0.24 -0.366,-0.462 l 0.001,-0.013 c 0.063,-0.998 0.291,-1.893 0.538,-2.787 0.252,-0.89 0.533,-1.766 0.835,-2.632 0.606,-1.732 1.267,-3.436 1.977,-5.126 0.061,-0.145 0.228,-0.213 0.372,-0.152 0.141,0.063 0.208,0.227 0.154,0.369 z"
   id="path129" />&#10;		</g><g
         id="g130"
         transform="matrix(-1.1530957,0,0,1.1530957,686.21424,-15.106818)">&#10;			<path
   style="fill:#2d1a22"
   d="m 266.924,174.956 c 0.74,0.159 1.574,0.198 2.37,0.156 0.804,-0.045 1.608,-0.16 2.391,-0.37 0.778,-0.218 1.553,-0.474 2.279,-0.841 0.739,-0.342 1.428,-0.781 2.102,-1.241 l 0.009,-0.006 c 0.1,-0.068 0.236,-0.043 0.304,0.057 0.067,0.098 0.043,0.231 -0.052,0.301 -0.68,0.493 -1.38,0.967 -2.137,1.344 -0.744,0.402 -1.543,0.693 -2.352,0.943 -0.813,0.242 -1.654,0.388 -2.502,0.459 -0.855,0.064 -1.693,0.06 -2.58,-0.105 -0.195,-0.036 -0.323,-0.223 -0.287,-0.418 0.036,-0.195 0.223,-0.323 0.418,-0.287 0.003,0.001 0.006,0.001 0.008,0.002 z"
   id="path130" />&#10;		</g><path
         style="fill:none;stroke:#d1937d;stroke-width:0.827346;stroke-linecap:round;stroke-linejoin:round;stroke-miterlimit:10"
         d="m 347.72761,174.65814 c 0,0 2.92886,0.34708 5.56023,4.81533"
         id="path131" /><path
         style="fill:none;stroke:#d1937d;stroke-width:0.827346;stroke-linecap:round;stroke-linejoin:round;stroke-miterlimit:10"
         d="m 348.02626,177.73575 c 0,0 1.56591,-1.06084 3.51348,-0.65495"
         id="path132" /><path
         style="fill:none;stroke:#6b21d6;stroke-width:0.827346;stroke-linecap:round;stroke-linejoin:round;stroke-miterlimit:10"
         d="m 394.34727,233.93072 v -1.75386 c 0,0 -15.49415,7.34753 -20.78916,12.04639"
         id="path133" /><path
         style="fill:none;stroke:#6b21d6;stroke-width:0.827346;stroke-linecap:round;stroke-linejoin:round;stroke-miterlimit:10"
         d="m 344.37095,198.15593 c 0,0 16.51233,11.5494 35.68716,41.5887"
         id="path134" /><path
         style="fill:none;stroke:#6b21d6;stroke-width:0.827346;stroke-linecap:round;stroke-linejoin:round;stroke-miterlimit:10"
         d="m 379.58303,239.00434 c 0,0 -7.82837,0.83484 -10.85639,2.72015"
         id="path135" /><path
         style="fill:none;stroke:#6b21d6;stroke-width:0.827346;stroke-linecap:round;stroke-linejoin:round;stroke-miterlimit:10"
         d="m 400.19923,271.55969 c 0,0 -19.09527,2.31657 -23.46434,0.7276 -4.36908,-1.58896 -10.98785,-5.82428 -17.07735,-14.56129 -6.0895,-8.737 -22.50382,-32.16791 -22.50382,-32.16791"
         id="path136" /><line
         style="fill:none;stroke:#6b21d6;stroke-width:0.827346;stroke-linecap:round;stroke-linejoin:round;stroke-miterlimit:10"
         x1="338.24686"
         y1="231.34894"
         x2="342.47989"
         y2="233.16161"
         id="line136" /><path
         style="fill:#6739a8;stroke-width:1.1531"
         d="m 401.39038,256.76547 c 0,0 0.69416,8.92381 -1.18769,14.78154 -0.0254,0.003 -0.0496,0.008 -0.075,0.0115 h -0.24331 c -0.18103,-0.37015 -3.57805,-7.36136 -4.35178,-11.51712 z"
         id="path137" /><line
         style="fill:none;stroke:#6b21d6;stroke-width:0.827346;stroke-linecap:round;stroke-linejoin:round;stroke-miterlimit:10"
         x1="401.22549"
         y1="210.0697"
         x2="396.98901"
         y2="231.7802"
         id="line137" /><path
         style="fill:none;stroke:#6b21d6;stroke-width:0.827346;stroke-linecap:round;stroke-linejoin:round;stroke-miterlimit:10"
         d="m 402.9459,220.3288 c 0,0 -5.03326,6.71333 -5.27887,7.97366"
         id="path138" /><path
         style="fill:none;stroke:#6b21d6;stroke-width:0.827346;stroke-linecap:round;stroke-linejoin:round;stroke-miterlimit:10"
         d="m 404.66748,415.52023 c 0,0 -8.14086,-64.93197 -8.14086,-68.90323"
         id="path139" /><line
         style="fill:none;stroke:#6b21d6;stroke-width:0.827346;stroke-linecap:round;stroke-linejoin:round;stroke-miterlimit:10"
         x1="377.79456"
         y1="371.57114"
         x2="378.72052"
         y2="413.27057"
         id="line139" /><line
         style="fill:none;stroke:#6b21d6;stroke-width:0.827346;stroke-linecap:round;stroke-linejoin:round;stroke-miterlimit:10"
         x1="362.17358"
         y1="400.82632"
         x2="362.83548"
         y2="373.29156"
         id="line140" /><line
         style="fill:none;stroke:#6b21d6;stroke-width:0.827346;stroke-linecap:round;stroke-linejoin:round;stroke-miterlimit:10"
         x1="346.88467"
         y1="344.83084"
         x2="339.7355"
         y2="407.77603"
         id="line141" /><line
         style="fill:none;stroke:#6b21d6;stroke-width:0.827346;stroke-linecap:round;stroke-linejoin:round;stroke-miterlimit:10"
         x1="332.58746"
         y1="370.24741"
         x2="326.82889"
         y2="412.14511"
         id="line142" /><path
         style="fill:none;stroke:#d1937d;stroke-width:0.827346;stroke-linecap:round;stroke-linejoin:round;stroke-miterlimit:10"
         d="m 434.121,217.08514 -3.83866,7.8595 c 0,0 -4.46824,4.96408 -7.19762,7.19763"
         id="path142" /><path
         style="fill:none;stroke:#d1937d;stroke-width:0.827346;stroke-linecap:round;stroke-linejoin:round;stroke-miterlimit:10"
         d="m 422.29024,227.17934 c 0,0 4.88105,-4.07042 6.3132,-6.15522 1.43099,-2.0848 4.39329,-9.29972 4.39329,-9.29972"
         id="path143" /><path
         style="fill:none;stroke:#d1937d;stroke-width:0.827346;stroke-linecap:round;stroke-linejoin:round;stroke-miterlimit:10"
         d="m 420.99877,222.51277 c 0,0 4.26876,-4.617 5.11283,-5.80815 0.84406,-1.19114 3.57459,-7.62773 3.57459,-7.62773"
         id="path144" /><path
         style="fill:#6739a8;stroke-width:1.1531"
         d="m 445.04197,261.69726 c -0.03,0.03 -0.0611,0.0577 -0.0922,0.0876 -1.76654,-1.60626 -3.34974,-3.52963 -3.34974,-3.52963 l 4.89835,-13.50275 c 0,0 5.03095,10.45858 -1.45636,16.94474 z"
         id="path145" /><path
         style="fill:none;stroke:#d1937d;stroke-width:0.827346;stroke-linecap:round;stroke-linejoin:round;stroke-miterlimit:10"
         d="m 448.52893,224.61486 c 0,0 -5.68822,-1.40678 -7.72344,-4.53397 0,0 -2.43418,0.47738 -3.77292,-0.2975"
         id="path146" /><path
         style="fill:none;stroke:#d1937d;stroke-width:0.827346;stroke-linecap:round;stroke-linejoin:round;stroke-miterlimit:10"
         d="m 443.25582,210.46638 c 0,0 -2.71323,-4.36908 -7.08231,-6.02378 0,0 -0.3171,-1.74348 -0.46124,-2.6475"
         id="path147" /><path
         style="fill:none;stroke:#d1937d;stroke-width:0.827346;stroke-linecap:round;stroke-linejoin:round;stroke-miterlimit:10"
         d="m 451.47048,185.97693 c 0,0 2.1436,7.64502 2.1436,8.24002 0,0.595 -2.68095,10.0769 -2.68095,10.0769"
         id="path148" /><path
         style="fill:none;stroke:#d1937d;stroke-width:0.827346;stroke-linecap:round;stroke-linejoin:round;stroke-miterlimit:10"
         d="m 446.36688,201.06749 c 0,0 2.43187,-6.85054 2.53219,-8.19044 0.0992,-1.33989 -3.52501,-10.67305 -3.52501,-10.67305"
         id="path149" /><path
         style="fill:none;stroke:#d1937d;stroke-width:0.827346;stroke-linecap:round;stroke-linejoin:round;stroke-miterlimit:10"
         d="m 440.40998,180.61503 c 0,0 3.82136,10.42514 3.82136,11.02129 0,0.59615 -1.96372,6.30398 -1.96372,6.30398"
         id="path150" /><circle
         transform="matrix(-0.23620102,-0.97170421,-0.97170421,0.23620102,0,0)"
         style="opacity:0.44;fill:#ffdc00;fill-opacity:1;stroke-width:1.15309"
         cx="-276.52344"
         cy="-361.37131"
         id="ellipse150"
         r="27.154133" /><circle
         style="opacity:0.44;fill:#ffdc00;fill-opacity:1;stroke-width:1.1531"
         cx="-416.45673"
         cy="183.34557"
         r="18.81391"
         id="circle150"
         transform="scale(-1,1)" /><circle
         transform="matrix(-0.93010218,-0.36730087,-0.36730087,0.93010218,0,0)"
         style="fill:#ffdc00;fill-opacity:1;stroke-width:1.15309"
         cx="-454.68973"
         cy="17.562984"
         id="ellipse151"
         r="12.145529" /><g
         style="opacity:0.3"
         id="g164"
         transform="matrix(-1.1530957,0,0,1.1530957,686.21424,-15.106818)">&#10;			&#10;				<line
   style="fill:none;stroke:#f8fcff;stroke-width:0.4783;stroke-linecap:round;stroke-linejoin:round;stroke-miterlimit:10"
   x1="217.625"
   y1="153.549"
   x2="224.241"
   y2="162.332"
   id="line151" />&#10;			&#10;				<line
   style="fill:none;stroke:#f8fcff;stroke-width:0.4783;stroke-linecap:round;stroke-linejoin:round;stroke-miterlimit:10"
   x1="213.972"
   y1="156.649"
   x2="220.39101"
   y2="163.013"
   id="line152" />&#10;			&#10;				<line
   style="fill:none;stroke:#f8fcff;stroke-width:0.4783;stroke-linecap:round;stroke-linejoin:round;stroke-miterlimit:10"
   x1="209.32401"
   y1="168.07201"
   x2="220.39101"
   y2="171.114"
   id="line153" />&#10;			&#10;				<line
   style="fill:none;stroke:#f8fcff;stroke-width:0.4783;stroke-linecap:round;stroke-linejoin:round;stroke-miterlimit:10"
   x1="216.097"
   y1="191.004"
   x2="226.23599"
   y2="181.01601"
   id="line154" />&#10;			&#10;				<line
   style="fill:none;stroke:#f8fcff;stroke-width:0.4783;stroke-linecap:round;stroke-linejoin:round;stroke-miterlimit:10"
   x1="232.284"
   y1="184.761"
   x2="230.00301"
   y2="198.75301"
   id="line155" />&#10;			&#10;				<line
   style="fill:none;stroke:#f8fcff;stroke-width:0.4783;stroke-linecap:round;stroke-linejoin:round;stroke-miterlimit:10"
   x1="238.311"
   y1="185.407"
   x2="243.82201"
   y2="195.653"
   id="line156" />&#10;			&#10;				<line
   style="fill:none;stroke:#f8fcff;stroke-width:0.4783;stroke-linecap:round;stroke-linejoin:round;stroke-miterlimit:10"
   x1="247.948"
   y1="181.84801"
   x2="256.33499"
   y2="186.55499"
   id="line157" />&#10;			&#10;				<line
   style="fill:none;stroke:#f8fcff;stroke-width:0.4783;stroke-linecap:round;stroke-linejoin:round;stroke-miterlimit:10"
   x1="247.61"
   y1="169.46899"
   x2="257.59799"
   y2="165.431"
   id="line158" />&#10;			&#10;				<line
   style="fill:none;stroke:#f8fcff;stroke-width:0.4783;stroke-linecap:round;stroke-linejoin:round;stroke-miterlimit:10"
   x1="245.659"
   y1="174.845"
   x2="256.33499"
   y2="176.912"
   id="line159" />&#10;			&#10;				<line
   style="fill:none;stroke:#f8fcff;stroke-width:0.4783;stroke-linecap:round;stroke-linejoin:round;stroke-miterlimit:10"
   x1="244.47501"
   y1="164.743"
   x2="254.496"
   y2="155.323"
   id="line160" />&#10;			&#10;				<line
   style="fill:none;stroke:#f8fcff;stroke-width:0.4783;stroke-linecap:round;stroke-linejoin:round;stroke-miterlimit:10"
   x1="244.47501"
   y1="161.011"
   x2="251.57001"
   y2="152.897"
   id="line161" />&#10;			&#10;				<line
   style="fill:none;stroke:#f8fcff;stroke-width:0.4783;stroke-linecap:round;stroke-linejoin:round;stroke-miterlimit:10"
   x1="238.311"
   y1="161.011"
   x2="243.464"
   y2="145.994"
   id="line162" />&#10;			&#10;				<line
   style="fill:none;stroke:#f8fcff;stroke-width:0.4783;stroke-linecap:round;stroke-linejoin:round;stroke-miterlimit:10"
   x1="231.76801"
   y1="145.45599"
   x2="232.284"
   y2="157.50999"
   id="line163" />&#10;			&#10;				<line
   style="fill:none;stroke:#f8fcff;stroke-width:0.4783;stroke-linecap:round;stroke-linejoin:round;stroke-miterlimit:10"
   x1="227.405"
   y1="147.293"
   x2="230.00301"
   y2="157.50999"
   id="line164" />&#10;		</g><g
         id="g167"
         transform="matrix(-1.1530957,0,0,1.1530957,686.21424,-15.106818)">&#10;			<path
   style="fill:#f8fcff"
   d="m 209.855,152.401 c 0,0 -1.105,3.444 -2.942,4.649 0,0 2.296,1.607 2.411,5.051 0,0 0.23,-3.903 2.698,-5.166 0,0.001 -1.866,-0.573 -2.167,-4.534 z"
   id="path164" />&#10;			<path
   style="fill:#f8fcff"
   d="m 230.444,184.489 c 0,0 -1.26,3.927 -3.354,5.301 0,0 2.618,1.832 2.749,5.759 0,0 0.262,-4.45 3.076,-5.89 0,0 -2.127,-0.655 -2.471,-5.17 z"
   id="path165" />&#10;			<path
   style="fill:#f8fcff"
   d="m 238.828,141.624 c 0,0 -1.335,3.745 -3.143,4.908 0,0 1.794,2.071 1.851,5.869 0,0 1.119,-4.951 2.971,-5.389 0,0.001 -1.937,-1.858 -1.679,-5.388 z"
   id="path166" />&#10;			<path
   style="fill:#f8fcff"
   d="m 257.598,175.075 c 0,0 -1.154,3.1 -3.103,4.707 0,0 2.586,2.009 2.758,4.822 0,0 0.345,-3.214 2.698,-4.764 10e-4,-0.001 -1.793,-1.235 -2.353,-4.765 z"
   id="path167" />&#10;		</g></g><g
       id="g1"><path
         style="fill:#a03cff;fill-opacity:1;stroke:none;stroke-width:0.244392px;stroke-linecap:butt;stroke-linejoin:miter;stroke-opacity:1"
         d="m 382.9633,159.82849 c 5.2943,-5.83194 3.26847,-10.00408 2.22866,-10.48795 -1.03981,-0.48386 -9.24885,-2.006 -12.17611,-4.77042 -2.92726,-2.76441 -3.4668,-10.0762 -3.4668,-10.0762 0,0 -0.81028,-6.54511 -1.5262,-7.46036 -0.71593,-0.91526 -3.88638,-5.26045 -7.2642,-6.42516 -3.37782,-1.1647 -10.13355,0.5549 -13.0391,-1.05354 -2.90553,-1.60844 -7.67593,-5.58383 -11.06869,-4.72321 -3.39277,0.86062 -9.28726,2.52572 -11.0002,4.79158 -1.71292,2.26585 -1.29125,7.6389 -0.43217,9.97837 0.85908,2.33946 2.21436,-2.72029 4.19463,-3.60485 1.98028,-0.88456 4.1059,-2.07213 5.65769,-0.2169 1.55179,1.85522 3.08981,7.13822 2.57962,8.8599 -0.5101,1.72166 -2.52585,7.08322 -2.52245,10.98747 0.003,3.90424 -2.31485,4.39921 -0.23004,8.48932 2.08481,4.0901 4.96987,2.31173 6.27697,6.27712 1.3071,3.96538 -3.06591,6.69927 0.35116,8.40128 3.41707,1.70203 22.87413,-2.08497 27.94013,-4.17018 5.066,-2.08521 13.49699,-4.79624 13.49699,-4.79624 z"
         id="path4458"
         sodipodi:nodetypes="ssscsssssssscssssscs" /><path
         sodipodi:type="star"
         style="fill:#ffdc00;fill-opacity:1;stroke:none;stroke-width:2.13543;stroke-linecap:round;stroke-linejoin:round"
         id="path2578"
         inkscape:flatsided="false"
         sodipodi:sides="5"
         sodipodi:cx="206.64851"
         sodipodi:cy="357.10861"
         sodipodi:r1="35.63525"
         sodipodi:r2="21.536913"
         sodipodi:arg1="-1.5707963"
         sodipodi:arg2="-0.9424778"
         inkscape:rounded="0"
         inkscape:randomized="0"
         transform="matrix(-0.16981213,0.04943695,0.04943695,0.16981213,391.04972,81.961461)"
         inkscape:transform-center-y="-0.65156277"
         inkscape:transform-center-x="1.3530041e-06"
         d="m 206.64851,321.47336 12.65908,18.21152 21.23206,6.41184 -13.40831,17.66716 0.46305,22.17426 -20.94588,-7.29262 -20.94587,7.29261 0.46305,-22.17425 -13.40831,-17.66717 21.23205,-6.41183 z" /><path
         sodipodi:type="star"
         style="fill:#ffdc00;fill-opacity:1;stroke:none;stroke-width:2.13543;stroke-linecap:round;stroke-linejoin:round"
         id="path2578-5"
         inkscape:flatsided="false"
         sodipodi:sides="5"
         sodipodi:cx="206.64851"
         sodipodi:cy="357.10861"
         sodipodi:r1="35.63525"
         sodipodi:r2="21.536913"
         sodipodi:arg1="-1.5707963"
         sodipodi:arg2="-0.9424778"
         inkscape:rounded="0"
         inkscape:randomized="0"
         transform="matrix(-0.16981213,0.04943695,0.04943695,0.16981213,366.73008,83.032264)"
         inkscape:transform-center-y="-0.65156277"
         inkscape:transform-center-x="1.3530041e-06"
         d="m 206.64851,321.47336 12.65908,18.21152 21.23206,6.41184 -13.40831,17.66716 0.46305,22.17426 -20.94588,-7.29262 -20.94587,7.29261 0.46305,-22.17425 -13.40831,-17.66717 21.23205,-6.41183 z" /><path
         sodipodi:type="star"
         style="fill:#ffdc00;fill-opacity:1;stroke:none;stroke-width:2.13543;stroke-linecap:round;stroke-linejoin:round"
         id="path2578-5-0"
         inkscape:flatsided="false"
         sodipodi:sides="5"
         sodipodi:cx="206.64851"
         sodipodi:cy="357.10861"
         sodipodi:r1="35.63525"
         sodipodi:r2="21.536913"
         sodipodi:arg1="-1.5707963"
         sodipodi:arg2="-0.9424778"
         inkscape:rounded="0"
         inkscape:randomized="0"
         transform="matrix(-0.16981213,0.04943695,0.04943695,0.16981213,376.49724,66.363421)"
         inkscape:transform-center-y="-0.65156277"
         inkscape:transform-center-x="1.3530041e-06"
         d="m 206.64851,321.47336 12.65908,18.21152 21.23206,6.41184 -13.40831,17.66716 0.46305,22.17426 -20.94588,-7.29262 -20.94587,7.29261 0.46305,-22.17425 -13.40831,-17.66717 21.23205,-6.41183 z" /><path
         sodipodi:type="star"
         style="fill:#ffdc00;fill-opacity:1;stroke:none;stroke-width:2.13543;stroke-linecap:round;stroke-linejoin:round"
         id="path2578-5-0-3"
         inkscape:flatsided="false"
         sodipodi:sides="5"
         sodipodi:cx="206.64851"
         sodipodi:cy="357.10861"
         sodipodi:r1="35.63525"
         sodipodi:r2="21.536913"
         sodipodi:arg1="-1.5707963"
         sodipodi:arg2="-0.9424778"
         inkscape:rounded="0"
         inkscape:randomized="0"
         transform="matrix(-0.16981213,0.04943695,0.04943695,0.16981213,360.12585,54.733043)"
         inkscape:transform-center-y="-0.65156277"
         inkscape:transform-center-x="1.3530041e-06"
         d="m 206.64851,321.47336 12.65908,18.21152 21.23206,6.41184 -13.40831,17.66716 0.46305,22.17426 -20.94588,-7.29262 -20.94587,7.29261 0.46305,-22.17425 -13.40831,-17.66717 21.23205,-6.41183 z" /></g></g><g
     id="g424"
     transform="matrix(1.036669,0,0,1.036669,-183.26888,-21.472352)"><g
       id="g14463-3-2-3"
       transform="matrix(9.4409387,-0.30663096,0.30663096,9.4409387,2899.4598,-531.49518)"
       style="stroke-linecap:butt;stroke-linejoin:round"><polygon
         style="fill:#3b484a"
         points="60.637,252.066 38.52,283.096 62.011,279.022 72.574,249.043 "
         id="polygon14235-0-8-3"
         transform="matrix(0.02449793,0,0,0.02449793,-247.34003,74.897674)" /><path
         style="fill:#b3b3b3;stroke-width:0.0244979"
         d="m -245.9167,83.200391 0.0682,0.710538 -0.62245,0.856376 c -0.14161,0.19483 -0.0983,0.468545 0.0965,0.610156 l 0.56769,0.41262 c 0.12739,0.09264 0.29212,0.109403 0.43476,0.04563 l 1.13473,-0.753656 0.76959,-0.210319 0.0351,0.795219 -1.4501,0.963088 c -0.0151,0.0094 -0.0305,0.01904 -0.0466,0.02718 -0.46102,0.234468 -1.00732,0.191231 -1.42573,-0.11288 l -0.56772,-0.412618 c -0.61068,-0.443878 -0.74641,-1.301879 -0.30254,-1.91261 l 0.62245,-0.856378 z"
         id="path14237-9-1-2"
         inkscape:connector-curvature="0" /><g
         id="g14259-2-6-0"
         transform="matrix(0.02449793,0,0,0.02449793,-247.34003,74.897674)"><path
           style="fill:#999999"
           d="M 448.854,1.058 448.186,0.893 C 431.919,-3.127 415.475,6.8 411.454,23.067 l 30.12,7.444 z"
           id="path14239-5-0-8"
           inkscape:connector-curvature="0" /><path
           style="fill:#999999"
           d="m 510.852,79.816 -0.186,-0.662 C 506.127,63.024 489.371,53.629 473.243,58.169 l 8.405,29.866 z"
           id="path14241-4-7-3"
           inkscape:connector-curvature="0" /><path
           style="fill:#999999"
           d="m 213.459,144.89 -0.486,0.486 c -11.848,11.848 -11.848,31.058 0,42.906 l 13.544,13.544 21.939,-21.939 z"
           id="path14243-0-1-8"
           inkscape:connector-curvature="0" /><path
           style="fill:#999999"
           d="m 259.976,98.372 -0.486,0.486 c -11.848,11.848 -11.848,31.058 0,42.906 l 13.544,13.544 21.939,-21.939 z"
           id="path14245-5-9-0"
           inkscape:connector-curvature="0" /><path
           style="fill:#999999"
           d="m 306.493,51.855 -0.486,0.486 c -11.848,11.848 -11.848,31.058 0,42.906 l 13.544,13.544 21.939,-21.939 z"
           id="path14247-9-1-4"
           inkscape:connector-curvature="0" /><path
           style="fill:#999999"
           d="m 353.01,5.338 -0.486,0.486 c -11.848,11.848 -11.848,31.058 0,42.906 l 13.544,13.544 21.939,-21.939 z"
           id="path14249-4-1-3"
           inkscape:connector-curvature="0" /><path
           style="fill:#999999"
           d="m 479.602,175.808 0.486,-0.486 c 11.848,-11.848 11.848,-31.058 0,-42.906 l -13.544,-13.544 -21.939,21.939 z"
           id="path14251-6-9-2"
           inkscape:connector-curvature="0" /><path
           style="fill:#999999"
           d="m 433.084,222.325 0.486,-0.486 c 11.848,-11.848 11.848,-31.058 0,-42.906 l -13.544,-13.544 -21.939,21.939 z"
           id="path14253-9-7-9"
           inkscape:connector-curvature="0" /><path
           style="fill:#999999"
           d="m 386.568,268.842 0.486,-0.486 c 11.848,-11.848 11.848,-31.058 0,-42.906 l -13.544,-13.544 -21.939,21.939 z"
           id="path14255-2-5-0"
           inkscape:connector-curvature="0" /><path
           style="fill:#999999"
           d="m 340.051,315.359 0.486,-0.486 c 11.848,-11.848 11.848,-31.058 0,-42.906 l -13.544,-13.544 -21.939,21.939 z"
           id="path14257-2-8-0"
           inkscape:connector-curvature="0" /></g><path
         style="fill:#b3b3b3;stroke-width:0.0244979"
         d="m -236.01008,75.985235 v 0 c -0.71456,-0.714556 -1.87306,-0.714556 -2.58759,0 l -4.05676,4.056735 0.3609,2.22669 2.22669,0.360904 4.05674,-4.056735 c 0.71455,-0.714556 0.71455,-1.873063 2e-5,-2.587594 z"
         id="path14261-4-9-1"
         inkscape:connector-curvature="0" /><path
         style="fill:#d9d9d9;stroke-width:0.0244979"
         d="m -236.60393,76.579089 c -0.38597,-0.385964 -1.01395,-0.385964 -1.39989,0 l -4.05676,4.056711 0.18185,1.218061 1.21806,0.181848 4.05674,-4.056734 c 0.38594,-0.385965 0.38594,-1.013945 0,-1.399886 z"
         id="path14263-7-1-2"
         inkscape:connector-curvature="0" /><path
         style="fill:#fbd569;fill-opacity:1;stroke-width:0.0244979"
         d="m -242.65443,80.04197 c -0.53874,-0.538734 -1.41221,-0.538734 -1.95095,0 l -2.18401,2.184015 c -0.27756,0.277561 -0.27756,0.727564 0,1.005125 l 3.0605,3.060502 3.66205,-3.662073 z"
         id="path14275-7-4-9"
         inkscape:connector-curvature="0" /><path
         style="fill:#f0be18;fill-opacity:1;stroke-width:0.0244979"
         d="m -246.1837,82.831647 2.18401,-2.184015 c 0.53874,-0.538734 1.41221,-0.538734 1.95094,0 l -0.60568,-0.605687 c -0.53874,-0.538734 -1.41221,-0.538734 -1.95095,0 l -2.18401,2.184015 c -0.27756,0.277562 -0.27756,0.727564 0,1.005126 l 0.60569,0.605687 c -0.27756,-0.277537 -0.27756,-0.72754 0,-1.005126 z"
         id="path14277-5-0-5"
         inkscape:connector-curvature="0" /><path
         style="fill:#3b484a;stroke-width:0.0244979"
         d="m -246.39637,81.83294 -1.63455,-0.887705 c -0.23728,-0.303319 -0.34186,-0.681025 -0.29541,-1.063136 0.0467,-0.382261 0.23954,-0.723424 0.54285,-0.960649 0.30333,-0.237257 0.68089,-0.342131 1.06315,-0.295451 0.38227,0.04671 0.65995,0.302312 0.96065,0.542857 l 2.22479,1.779739 c 0.16667,0.213106 0.12905,0.52098 -0.0841,0.687689 -0.2131,0.16672 -0.52101,0.12909 -0.68771,-0.08408 l -2.22478,-1.779716 c -0.15694,-0.200566 -0.44781,-0.236124 -0.64839,-0.07927 -0.0972,0.07602 -0.15895,0.185324 -0.17394,0.307789 -0.0149,0.122465 0.0187,0.243433 0.0946,0.340615 l 1.51549,0.785825 z"
         id="path14279-4-3-4"
         sodipodi:nodetypes="cccssscsccscccc"
         inkscape:connector-curvature="0" /><path
         style="fill:#3b484a;stroke-width:0.0244979"
         d="m -244.29788,84.526218 c -0.0484,0 -0.0969,-0.01847 -0.13384,-0.05544 -0.0739,-0.07391 -0.0739,-0.193779 0,-0.267689 l 1.34332,-1.343295 c 0.0739,-0.07391 0.19378,-0.07391 0.26767,0 0.0739,0.07391 0.0739,0.193779 0,0.267689 l -1.34332,1.343295 c -0.0369,0.03697 -0.0854,0.05544 -0.13383,0.05544 z"
         id="path14281-8-5-3"
         inkscape:connector-curvature="0" /><path
         style="fill:#3b484a;stroke-width:0.0244979"
         d="m -243.22031,84.653681 c -0.0484,0 -0.0969,-0.01847 -0.13383,-0.05544 -0.0739,-0.07391 -0.0739,-0.193778 0,-0.267689 l 0.86824,-0.868231 c 0.0739,-0.07391 0.19378,-0.07391 0.26767,0 0.0739,0.07391 0.0739,0.193779 0,0.267689 l -0.86823,0.868231 c -0.037,0.03697 -0.0854,0.05544 -0.13385,0.05544 z"
         id="path14283-1-8-4"
         inkscape:connector-curvature="0" /></g><path
       sodipodi:type="star"
       style="fill:#ffdc00;fill-opacity:1;stroke:none;stroke-width:2.13543;stroke-linecap:round;stroke-linejoin:round"
       id="path4765"
       inkscape:flatsided="false"
       sodipodi:sides="4"
       sodipodi:cx="61.362644"
       sodipodi:cy="572.57086"
       sodipodi:r1="63.608246"
       sodipodi:r2="7.6329894"
       sodipodi:arg1="-1.6055046"
       sodipodi:arg2="-0.82010644"
       inkscape:rounded="0"
       inkscape:randomized="0"
       transform="matrix(0.25557506,-0.08322951,0.08322951,0.25557506,616.58633,81.835529)"
       d="m 59.155355,509.00093 7.414082,57.98855 58.363143,3.37409 -57.988553,7.41409 -3.374094,58.36314 -7.414082,-57.98856 -58.3631432,-3.37409 57.9885542,-7.41408 z" /><path
       sodipodi:type="star"
       style="fill:#ffdc00;fill-opacity:1;stroke:none;stroke-width:2.13543;stroke-linecap:round;stroke-linejoin:round"
       id="path4765-3"
       inkscape:flatsided="false"
       sodipodi:sides="4"
       sodipodi:cx="61.362644"
       sodipodi:cy="572.57086"
       sodipodi:r1="63.608246"
       sodipodi:r2="7.6329894"
       sodipodi:arg1="-1.6055046"
       sodipodi:arg2="-0.82010644"
       inkscape:rounded="0"
       inkscape:randomized="0"
       transform="matrix(0.12649674,-0.04119439,0.04119439,0.12649674,674.27045,241.54185)"
       d="m 59.155355,509.00093 7.414082,57.98855 58.363143,3.37409 -57.988553,7.41409 -3.374094,58.36314 -7.414082,-57.98856 -58.3631432,-3.37409 57.9885542,-7.41408 z" /><path
       sodipodi:type="star"
       style="fill:#ffdc00;fill-opacity:1;stroke:none;stroke-width:2.13543;stroke-linecap:round;stroke-linejoin:round"
       id="path4765-3-7"
       inkscape:flatsided="false"
       sodipodi:sides="4"
       sodipodi:cx="61.362644"
       sodipodi:cy="572.57086"
       sodipodi:r1="63.608246"
       sodipodi:r2="7.6329894"
       sodipodi:arg1="-1.6055046"
       sodipodi:arg2="-0.82010644"
       inkscape:rounded="0"
       inkscape:randomized="0"
       transform="matrix(0.17812804,-0.05800842,0.05800842,0.17812804,597.28329,150.7819)"
       d="m 59.155355,509.00093 7.414082,57.98855 58.363143,3.37409 -57.988553,7.41409 -3.374094,58.36314 -7.414082,-57.98856 -58.3631432,-3.37409 57.9885542,-7.41408 z" /><path
       sodipodi:type="star"
       style="fill:#ffdc00;fill-opacity:1;stroke:none;stroke-width:2.13543;stroke-linecap:round;stroke-linejoin:round"
       id="path4765-3-7-8"
       inkscape:flatsided="false"
       sodipodi:sides="4"
       sodipodi:cx="61.362644"
       sodipodi:cy="572.57086"
       sodipodi:r1="63.608246"
       sodipodi:r2="7.6329894"
       sodipodi:arg1="-1.6055046"
       sodipodi:arg2="-0.82010644"
       inkscape:rounded="0"
       inkscape:randomized="0"
       transform="matrix(0.1135889,-0.03699088,0.03699088,0.1135889,688.8296,217.0823)"
       d="m 59.155355,509.00093 7.414082,57.98855 58.363143,3.37409 -57.988553,7.41409 -3.374094,58.36314 -7.414082,-57.98856 -58.3631432,-3.37409 57.9885542,-7.41408 z" /></g><g
     id="g426"
     transform="matrix(1.0200224,1.0200224,-1.0200224,1.0200224,364.72468,-712.79928)"><path
       sodipodi:type="star"
       style="fill:#fffafa;fill-opacity:1;stroke-width:5.53701;stroke-linecap:butt;stroke-linejoin:bevel"
       id="path846-7-6-4"
       inkscape:flatsided="true"
       sodipodi:sides="4"
       sodipodi:cx="328.95694"
       sodipodi:cy="334.28955"
       sodipodi:r1="194.34247"
       sodipodi:r2="137.42088"
       sodipodi:arg1="0"
       sodipodi:arg2="0.78539816"
       inkscape:rounded="0"
       inkscape:randomized="0"
       transform="matrix(0.52137121,-0.43589485,-0.43589485,0.52137121,566.07904,528.04784)"
       inkscape:transform-center-x="-1.2564354e-06"
       inkscape:transform-center-y="-2.8760282e-06"
       d="M 523.29941,334.28955 328.95694,528.63202 134.61447,334.28955 328.95694,139.94708 Z" /><g
       aria-label="LANDIS-II"
       transform="matrix(2.6725296,-2.6725296,2.6725296,2.6725296,372.76278,-193.89144)"
       id="text1921-9"
       style="font-size:6.75405px;fill:#bc4749;stroke-width:0.253276;stroke-linejoin:round"><path
         d="m -116.28697,184.20425 v -4.72783 h 1.09416 v 3.8363 h 2.37067 v 0.89153 z"
         style="-inkscape-font-specification:Montserrat"
         id="path339" /><path
         d="m -112.80213,184.20425 2.10727,-4.72783 h 1.08064 l 2.11402,4.72783 h -1.14819 l -1.72903,-4.174 h 0.43226 l -1.7358,4.174 z m 1.05363,-1.0131 0.29043,-0.83075 h 2.43146 l 0.29717,0.83075 z"
         style="-inkscape-font-specification:Montserrat"
         id="path341" /><path
         d="m -107.00716,184.20425 v -4.72783 h 0.90504 l 2.78942,3.40404 h -0.43901 v -3.40404 h 1.08065 v 4.72783 h -0.89829 l -2.79618,-3.40404 h 0.43902 v 3.40404 z"
         style="-inkscape-font-specification:Montserrat"
         id="path343" /><path
         d="m -101.5499,184.20425 v -4.72783 h 2.147791 q 0.769961,0 1.357564,0.29718 0.587602,0.29042 0.918551,0.81724 0.330948,0.52681 0.330948,1.2495 0,0.71593 -0.330948,1.2495 -0.330949,0.52681 -0.918551,0.82399 -0.587603,0.29042 -1.357564,0.29042 z m 1.09416,-0.89828 h 0.999598 q 0.472784,0 0.81724,-0.17561 0.351211,-0.18236 0.540324,-0.51331 0.195868,-0.33095 0.195868,-0.77671 0,-0.45252 -0.195868,-0.77672 -0.189113,-0.33095 -0.540324,-0.50655 -0.344456,-0.18236 -0.81724,-0.18236 h -0.999598 z"
         style="-inkscape-font-specification:Montserrat"
         id="path345" /><path
         d="m -95.971064,184.20425 v -4.72783 h 1.094156 v 4.72783 z"
         style="-inkscape-font-specification:Montserrat"
         id="path347" /><path
         d="m -92.20231,184.2853 q -0.567341,0 -1.087402,-0.14859 -0.520062,-0.15534 -0.837503,-0.39849 l 0.371473,-0.82399 q 0.303932,0.21613 0.715929,0.35797 0.418751,0.13508 0.844257,0.13508 0.324194,0 0.520061,-0.0608 0.202622,-0.0675 0.297179,-0.18236 0.09456,-0.11482 0.09456,-0.26341 0,-0.18911 -0.148589,-0.29718 -0.148589,-0.11481 -0.391735,-0.18235 -0.243145,-0.0743 -0.540324,-0.13509 -0.290424,-0.0675 -0.587602,-0.16209 -0.290424,-0.0946 -0.53357,-0.24315 -0.243146,-0.14859 -0.398489,-0.39173 -0.148589,-0.24315 -0.148589,-0.62138 0,-0.40524 0.21613,-0.73619 0.222883,-0.3377 0.661897,-0.53357 0.445767,-0.20262 1.114418,-0.20262 0.445767,0 0.878026,0.10807 0.432259,0.10131 0.763208,0.31068 l -0.337703,0.83075 q -0.330948,-0.18911 -0.661897,-0.27692 -0.330948,-0.0945 -0.648388,-0.0945 -0.317441,0 -0.520062,0.0743 -0.202622,0.0743 -0.290424,0.19587 -0.0878,0.11482 -0.0878,0.27016 0,0.18236 0.148589,0.29718 0.148589,0.10806 0.391735,0.1756 0.243146,0.0676 0.53357,0.13509 0.297178,0.0675 0.587602,0.15534 0.297178,0.0878 0.540324,0.23639 0.243146,0.14859 0.391735,0.39174 0.155343,0.24314 0.155343,0.61461 0,0.39849 -0.222883,0.72944 -0.222884,0.33095 -0.668651,0.53357 -0.439013,0.20262 -1.114418,0.20262 z"
         style="-inkscape-font-specification:Montserrat"
         id="path349" /><path
         d="m -89.564063,182.72512 v -0.84426 h 1.911396 v 0.84426 z"
         style="-inkscape-font-specification:Montserrat"
         id="path351" /><path
         d="m -86.747626,184.20425 v -4.72783 h 1.094156 v 4.72783 z"
         style="-inkscape-font-specification:Montserrat"
         id="path353" /><path
         d="m -84.532304,184.20425 v -4.72783 h 1.094156 v 4.72783 z"
         style="-inkscape-font-specification:Montserrat"
         id="path355" /></g></g></g></svg>
